<svg xmlns="http://www.w3.org/2000/svg" xmlns:xlink="http://www.w3.org/1999/xlink" width="1920" zoomAndPan="magnify" viewBox="0 0 1440 809.999993" height="1080" preserveAspectRatio="xMidYMid meet" version="1.0"><defs><clipPath id="a32f596f93"><path d="M 118 5.359375 L 1322 5.359375 L 1322 804.859375 L 118 804.859375 Z M 118 5.359375 " clip-rule="nonzero"/></clipPath></defs><g clip-path="url(#a32f596f93)"><path fill="#ede1d1" d="M 118.40625 804.695312 L 118.40625 583.542969 C 118.40625 467.632812 135.785156 372.515625 170.628906 298.304688 C 205.472656 224.09375 264.976562 161.007812 349.199219 109.152344 C 433.421875 57.300781 528.082031 22.710938 633.242188 5.417969 L 633.242188 181.769531 C 558.09375 216.53125 515.425781 262.980469 505.242188 321.148438 L 633.242188 321.148438 L 633.242188 804.695312 Z M 806.75 804.695312 L 806.75 583.542969 C 806.75 467.632812 824.128906 372.515625 858.972656 298.304688 C 893.816406 224.09375 953.007812 161.007812 1036.605469 109.152344 C 1120.175781 57.300781 1215.179688 22.710938 1321.585938 5.417969 L 1321.585938 181.769531 C 1246.4375 216.53125 1203.773438 262.980469 1193.589844 321.148438 L 1321.585938 321.148438 L 1321.585938 804.695312 Z M 806.75 804.695312 " fill-opacity="1" fill-rule="nonzero"/></g></svg>