<?xml version="1.0" encoding="utf-8"?>
<!-- Generator: Adobe Adobe Illustrator 29.1.0, SVG Export Plug-In . SVG Version: 6.00 Build 0)  -->
<svg version="1.1" id="Layer_1" xmlns="http://www.w3.org/2000/svg" xmlns:xlink="http://www.w3.org/1999/xlink" x="0px" y="0px"
	 width="566.93px" height="263.34px" viewBox="0 0 566.93 263.34" style="enable-background:new 0 0 566.93 263.34;"
	 xml:space="preserve">
<style type="text/css">
	.st0{fill:#B17B29;stroke:#000000;stroke-miterlimit:10;}
	.st1{fill:#B17B29;stroke:#000000;stroke-width:0.8032;stroke-miterlimit:10;}
	.st2{stroke:#000000;stroke-width:2.1596;stroke-miterlimit:10;}
	.st3{stroke:#000000;stroke-width:1.4208;stroke-miterlimit:10;}
</style>
<g>
	<g>
		<path d="M40.47,183.44H114l21.1-41.99h2.18v48.51H0v-6.53c2.18-3.77,5.19-8.96,9.03-15.56s8.16-13.96,12.95-22.08
			c4.79-8.12,9.86-16.75,15.23-25.89c5.36-9.14,10.66-18.21,15.88-27.19c12.32-21.03,25.59-43.73,39.81-68.1H31.11l-21.1,41.99H7.83
			V14.17h2.18l11.09,3.92h112.7v5.44L40.47,183.44z"/>
	</g>
	<g>
		<path d="M260.8,145.36c0,2.03,0.25,4.02,0.76,5.98c0.5,1.96,1.3,3.73,2.39,5.32c1.09,1.6,2.43,2.91,4.02,3.92
			c1.59,1.02,3.49,1.53,5.66,1.53v4.35h-47.64v-13.92c-4.49,5.22-9.93,9.21-16.31,11.96c-6.39,2.76-13.06,4.14-20.02,4.14
			c-4.21,0-8.38-0.58-12.51-1.74c-4.14-1.16-7.83-2.9-11.09-5.23c-3.27-2.32-5.88-5.25-7.83-8.81c-1.96-3.55-2.93-7.65-2.93-12.29
			c0-4.93,1.23-9.47,3.7-13.6c2.46-4.14,6.23-7.69,11.31-10.66c5.07-2.97,11.45-5.29,19.14-6.96c7.69-1.66,16.82-2.5,27.41-2.5
			c1.59,0,3.15,0.03,4.67,0.11c1.53,0.07,3.01,0.11,4.46,0.11V84.66c0-5.22-0.54-9.57-1.63-13.05c-1.08-3.48-2.58-6.31-4.45-8.49
			c-1.89-2.17-4.03-3.73-6.42-4.67c-2.39-0.94-4.89-1.41-7.51-1.41c-4.78,0-8.66,0.94-11.64,2.83s-5.62,3.99-7.94,6.31l-14.14,26.54
			h-2.17V62.25c6.38-3.77,13.31-6.75,20.77-8.92c7.47-2.18,15.48-3.27,24.04-3.27c5.94,0,11.67,0.65,17.19,1.96
			c5.51,1.31,10.4,3.45,14.68,6.42c4.28,2.97,7.69,6.92,10.23,11.86c2.54,4.93,3.8,11.02,3.8,18.27V145.36z M225.99,113.16
			c-2.03,0-4.43,0-7.18,0c-2.76,0-5.15,0.07-7.18,0.22c-7.54,0.58-13.02,2.97-16.43,7.18c-3.41,4.21-5.11,9.94-5.11,17.19
			c0,3.63,0.44,6.63,1.31,9.02c0.87,2.4,2.03,4.36,3.48,5.88c1.45,1.53,3.05,2.61,4.79,3.27c1.74,0.65,3.48,0.98,5.23,0.98
			c4.06,0,8.05-1.55,11.96-4.67c3.92-3.12,6.96-6.56,9.14-10.34V113.16z"/>
		<path d="M295.83,52.24c3.77-1.16,7.4-2.9,10.88-5.23c3.49-2.32,6.6-4.93,9.35-7.83c2.76-2.9,5.11-5.91,7.07-9.03
			c1.96-3.12,3.37-5.91,4.24-8.38h3.27v30.46h30.89v6.53h-30.89v67.66c0,8.7,0.87,15.44,2.61,20.23s5.36,7.18,10.88,7.18
			c3.34,0,6.86-1.01,10.56-3.04c3.7-2.03,6.99-5.08,9.9-9.14l0.21,7.62c-3.48,5.52-8.59,10.12-15.34,13.82s-14.32,5.55-22.73,5.55
			c-10.44,0-18.21-3.08-23.28-9.25c-5.08-6.16-7.62-14.1-7.62-23.82V79.22c0-6.53,2.28-11.57,6.85-15.12s11.49-5.33,20.78-5.33
			h-0.22v-2.4l-40.9,0.22v-4.35H295.83z"/>
		<path d="M374.8,52.24c3.77-1.16,7.4-2.9,10.88-5.23c3.49-2.32,6.6-4.93,9.35-7.83c2.76-2.9,5.11-5.91,7.07-9.03
			c1.96-3.12,3.37-5.91,4.24-8.38h3.27v30.46h30.89v6.53h-30.89v67.66c0,8.7,0.87,15.44,2.61,20.23s5.36,7.18,10.88,7.18
			c3.34,0,6.86-1.01,10.56-3.04c3.7-2.03,6.99-5.08,9.9-9.14l0.21,7.62c-3.48,5.52-8.59,10.12-15.34,13.82s-14.32,5.55-22.73,5.55
			c-10.44,0-18.21-3.08-23.28-9.25c-5.08-6.16-7.62-14.1-7.62-23.82V79.22c0-6.53,2.28-11.57,6.85-15.12s11.49-5.33,20.78-5.33
			h-0.22v-2.4l-40.9,0.22v-4.35H374.8z"/>
		<path d="M563.85,109.46c0,7.83-1.27,15.3-3.81,22.41c-2.54,7.1-6.27,13.38-11.2,18.82c-4.93,5.44-11.02,9.79-18.28,13.05
			c-7.25,3.27-15.66,4.9-25.24,4.9c-9.57,0-17.99-1.45-25.24-4.36c-7.25-2.89-13.31-6.96-18.17-12.18
			c-4.86-5.22-8.56-11.45-11.09-18.71c-2.54-7.25-3.8-15.22-3.8-23.93s1.23-16.68,3.7-23.93c2.46-7.25,6.16-13.48,11.09-18.71
			c4.93-5.22,10.99-9.31,18.17-12.29c7.18-2.97,15.56-4.46,25.13-4.46c9.57,0,17.98,1.63,25.24,4.89
			c7.25,3.27,13.38,7.62,18.38,13.05c5,5.44,8.77,11.75,11.31,18.93C562.58,94.12,563.85,101.63,563.85,109.46z M481.83,109.24
			c0,11.17,0.69,20.2,2.07,27.09c1.37,6.89,3.19,12.22,5.44,15.99c2.24,3.77,4.75,6.31,7.5,7.62c2.76,1.31,5.51,1.96,8.27,1.96
			c3.19,0,6.23-0.65,9.14-1.96c2.9-1.31,5.44-3.84,7.62-7.62c2.17-3.77,3.92-9.1,5.22-15.99c1.31-6.89,1.96-15.92,1.96-27.09
			c0-11.02-0.62-19.98-1.85-26.87c-1.23-6.89-2.94-12.26-5.12-16.1c-2.17-3.84-4.67-6.45-7.5-7.83c-2.83-1.38-5.76-2.07-8.81-2.07
			c-3.05,0-6.02,0.76-8.92,2.28c-2.9,1.53-5.44,4.28-7.61,8.27c-2.18,3.99-3.96,9.39-5.33,16.21
			C482.52,89.95,481.83,98.66,481.83,109.24z"/>
	</g>
	<circle cx="197.06" cy="191.23" r="11.9"/>
	<circle cx="228.36" cy="191.91" r="11.9"/>
	<g>
		<path class="st3" d="M3.08,226.19h6.71c4.57,0,7.77,1.55,7.77,5.51c0,2.23-1.2,4.23-3.3,4.91v0.13c2.68,0.52,4.57,2.31,4.57,5.4
			c0,4.44-3.5,6.6-8.53,6.6H3.08V226.19z M9.3,235.79c3.82,0,5.4-1.41,5.4-3.71c0-2.62-1.79-3.58-5.29-3.58H5.97v7.29H9.3z
			 M9.89,246.46c3.86,0,6.09-1.38,6.09-4.4c0-2.79-2.17-4.06-6.09-4.06H5.97v8.46H9.89z"/>
		<path class="st3" d="M34.19,226.19h7.06c4.6,0,7.91,1.66,7.91,6.37c0,3.5-1.99,5.57-5.06,6.36l5.75,9.84h-3.27l-5.44-9.53h-4.06
			v9.53h-2.89V226.19z M40.83,236.89c3.5,0,5.43-1.45,5.43-4.34c0-2.96-1.92-4.02-5.43-4.02h-3.76v8.36H40.83z"/>
		<path class="st3" d="M64.68,226.19h2.89v22.57h-2.89V226.19z"/>
		<path class="st3" d="M84.6,226.19h3.1l8.05,14.07c0.86,1.51,1.65,3.2,2.44,4.85h0.14c-0.18-2.34-0.38-4.81-0.38-7.15v-11.77h2.71
			v22.57h-3.09l-8.05-14.06c-0.87-1.51-1.69-3.2-2.44-4.86h-0.13c0.17,2.28,0.38,4.71,0.38,7.06v11.86H84.6V226.19z"/>
		<path class="st3" d="M117.71,226.19h5.65c6.95,0,10.66,4.02,10.66,11.18c0,7.19-3.71,11.38-10.53,11.38h-5.78V226.19z
			 M123.14,246.39c5.27,0,7.88-3.3,7.88-9.01c0-5.67-2.61-8.8-7.88-8.8h-2.55v17.82H123.14z"/>
		<path class="st3" d="M149.78,226.19h13.01v2.44h-10.12v7.05h8.54v2.44h-8.54v8.18h10.46v2.44h-13.35V226.19z"/>
		<path class="st3" d="M177.14,245.8l1.61-1.89c1.66,1.68,3.96,2.71,6.33,2.71c2.96,0,4.7-1.48,4.7-3.65c0-2.3-1.65-3.02-3.75-3.96
			l-3.27-1.44c-2.09-0.9-4.54-2.48-4.54-5.81c0-3.44,2.99-5.99,7.08-5.99c2.76,0,5.09,1.13,6.67,2.72l-1.58,1.92
			c-1.38-1.31-3.13-2.1-5.09-2.1c-2.51,0-4.16,1.28-4.16,3.27c0,2.17,1.96,2.99,3.71,3.71l3.23,1.41c2.61,1.1,4.64,2.68,4.64,6.02
			c0,3.57-2.96,6.43-7.7,6.43C181.82,249.17,179.1,247.9,177.14,245.8z"/>
		<path class="st3" d="M224.49,237.47c0-7.26,4.27-11.7,10.01-11.7c2.76,0,4.88,1.31,6.23,2.79l-1.58,1.79
			c-1.2-1.24-2.69-2.03-4.61-2.03c-4.23,0-7.05,3.48-7.05,9.08c0,5.68,2.68,9.22,6.95,9.22c2.17,0,3.78-0.86,5.23-2.44l1.59,1.71
			c-1.82,2.1-4.02,3.27-6.91,3.27C228.69,249.17,224.49,244.83,224.49,237.47z"/>
		<path class="st3" d="M254.03,237.37c0-7.23,3.96-11.59,9.63-11.59c5.68,0,9.66,4.4,9.66,11.59c0,7.26-3.98,11.8-9.66,11.8
			C257.98,249.17,254.03,244.63,254.03,237.37z M270.32,237.37c0-5.6-2.65-9.05-6.67-9.05c-4.02,0-6.64,3.44-6.64,9.05
			c0,5.64,2.61,9.25,6.64,9.25C267.68,246.62,270.32,243.01,270.32,237.37z"/>
		<path class="st3" d="M289.05,226.19h7.06c4.6,0,7.91,1.66,7.91,6.37c0,3.5-1.99,5.57-5.06,6.36l5.75,9.84h-3.27l-5.44-9.53h-4.06
			v9.53h-2.89V226.19z M295.7,236.89c3.5,0,5.43-1.45,5.43-4.34c0-2.96-1.92-4.02-5.43-4.02h-3.76v8.36H295.7z"/>
		<path class="st3" d="M319.54,226.19h6.44c5.06,0,8.49,1.69,8.49,6.65c0,4.78-3.4,6.98-8.36,6.98h-3.68v8.94h-2.89V226.19z
			 M325.77,237.47c3.92,0,5.81-1.45,5.81-4.64c0-3.23-1.99-4.3-5.95-4.3h-3.2v8.94H325.77z"/>
		<path class="st3" d="M348.62,237.37c0-7.23,3.96-11.59,9.63-11.59c5.68,0,9.66,4.4,9.66,11.59c0,7.26-3.98,11.8-9.66,11.8
			C352.58,249.17,348.62,244.63,348.62,237.37z M364.92,237.37c0-5.6-2.65-9.05-6.67-9.05c-4.02,0-6.64,3.44-6.64,9.05
			c0,5.64,2.61,9.25,6.64,9.25C362.27,246.62,364.92,243.01,364.92,237.37z"/>
		<path class="st3" d="M383.65,226.19h7.06c4.6,0,7.91,1.66,7.91,6.37c0,3.5-1.99,5.57-5.06,6.36l5.75,9.84h-3.27l-5.44-9.53h-4.06
			v9.53h-2.89V226.19z M390.29,236.89c3.5,0,5.43-1.45,5.43-4.34c0-2.96-1.92-4.02-5.43-4.02h-3.76v8.36H390.29z"/>
		<path class="st3" d="M418.61,226.19h3.3l7.6,22.57h-3.07l-2.13-6.85h-8.23l-2.17,6.85h-2.92L418.61,226.19z M416.86,239.57h6.75
			l-1.07-3.4c-0.83-2.51-1.55-4.99-2.27-7.6h-0.14c-0.69,2.61-1.41,5.09-2.2,7.6L416.86,239.57z"/>
		<path class="st3" d="M446.38,228.64h-6.81v-2.44h16.54v2.44h-6.85v20.12h-2.89V228.64z"/>
		<path class="st3" d="M471.02,226.19h2.89v22.57h-2.89V226.19z"/>
		<path class="st3" d="M487.86,226.19h3.06l3.51,12.18c0.76,2.65,1.34,4.81,2.17,7.43h0.13c0.82-2.61,1.38-4.78,2.17-7.43
			l3.75-12.18h2.96l-7.33,22.57h-3.34L487.86,226.19z"/>
		<path class="st3" d="M517.93,237.37c0-7.23,3.96-11.59,9.63-11.59c5.68,0,9.66,4.4,9.66,11.59c0,7.26-3.98,11.8-9.66,11.8
			C521.89,249.17,517.93,244.63,517.93,237.37z M534.23,237.37c0-5.6-2.65-9.05-6.67-9.05s-6.64,3.44-6.64,9.05
			c0,5.64,2.61,9.25,6.64,9.25S534.23,243.01,534.23,237.37z"/>
		<path class="st3" d="M551.31,245.8l1.61-1.89c1.66,1.68,3.96,2.71,6.33,2.71c2.96,0,4.7-1.48,4.7-3.65c0-2.3-1.65-3.02-3.75-3.96
			l-3.27-1.44c-2.09-0.9-4.54-2.48-4.54-5.81c0-3.44,2.99-5.99,7.08-5.99c2.76,0,5.09,1.13,6.67,2.72l-1.58,1.92
			c-1.38-1.31-3.13-2.1-5.09-2.1c-2.51,0-4.16,1.28-4.16,3.27c0,2.17,1.96,2.99,3.71,3.71l3.23,1.41c2.61,1.1,4.65,2.68,4.65,6.02
			c0,3.57-2.97,6.43-7.71,6.43C555.99,249.17,553.27,247.9,551.31,245.8z"/>
	</g>
</g>
</svg>
